/* XPM */
static char * bitcoin32_xpm[] = {
"32 32 746 2",
"  	c None",
". 	c #B89723",
"+ 	c #9D801B",
"@ 	c #8D7218",
"# 	c #886D18",
"$ 	c #917619",
"% 	c #987E21",
"& 	c #735F1E",
"* 	c #4C411A",
"= 	c #342E19",
"- 	c #221E12",
"; 	c #1F1D15",
"> 	c #232016",
", 	c #221F15",
"' 	c #252010",
") 	c #372E11",
"! 	c #514211",
"~ 	c #6B5512",
"{ 	c #897125",
"] 	c #5E5020",
"^ 	c #2D2A1E",
"/ 	c #27251D",
"( 	c #363221",
"_ 	c #322E1D",
": 	c #2E2919",
"< 	c #272416",
"[ 	c #2A281A",
"} 	c #292618",
"| 	c #242217",
"1 	c #1F1D16",
"2 	c #1C190F",
"3 	c #413311",
"4 	c #604D11",
"5 	c #A08027",
"6 	c #6C5A24",
"7 	c #2D2B22",
"8 	c #252521",
"9 	c #2D2B21",
"0 	c #302C1D",
"a 	c #2C281A",
"b 	c #1C1A12",
"c 	c #191710",
"d 	c #1D1B12",
"e 	c #211F14",
"f 	c #1C1A13",
"g 	c #1C1B12",
"h 	c #1F1E15",
"i 	c #343221",
"j 	c #2D2A1C",
"k 	c #131311",
"l 	c #4D3E14",
"m 	c #7A5E14",
"n 	c #886E26",
"o 	c #5E512D",
"p 	c #31312F",
"q 	c #2B2B29",
"r 	c #2B2C28",
"s 	c #262621",
"t 	c #3F3A26",
"u 	c #5B5027",
"v 	c #665925",
"w 	c #6A5B22",
"x 	c #62521E",
"y 	c #5E4E1B",
"z 	c #524518",
"A 	c #493E18",
"B 	c #3B3217",
"C 	c #211E14",
"D 	c #171712",
"E 	c #11110F",
"F 	c #0F0F0D",
"G 	c #121211",
"H 	c #3B2F10",
"I 	c #665010",
"J 	c #836626",
"K 	c #564B2F",
"L 	c #383837",
"M 	c #363634",
"N 	c #30302E",
"O 	c #4B4632",
"P 	c #64582C",
"Q 	c #796933",
"R 	c #706436",
"S 	c #5F5838",
"T 	c #514A31",
"U 	c #514930",
"V 	c #453C27",
"W 	c #413823",
"X 	c #473B1F",
"Y 	c #4B401D",
"Z 	c #483C17",
"` 	c #3F3414",
" .	c #0E0E0C",
"..	c #121210",
"+.	c #352C10",
"@.	c #685010",
"#.	c #8B6B25",
"$.	c #5D4F32",
"%.	c #393939",
"&.	c #383838",
"*.	c #393937",
"=.	c #635733",
"-.	c #7C6E41",
";.	c #6C6240",
">.	c #6C6550",
",.	c #605D51",
"'.	c #5D5B4F",
").	c #56544A",
"!.	c #807144",
"~.	c #6C5F38",
"{.	c #403E36",
"].	c #433E31",
"^.	c #443E2E",
"/.	c #3E3521",
"(.	c #4B3E19",
"_.	c #3C3111",
":.	c #2F280F",
"<.	c #0B0B09",
"[.	c #10100E",
"}.	c #3C300F",
"|.	c #7C6114",
"1.	c #685630",
"2.	c #414140",
"3.	c #3E3E3E",
"4.	c #3A3A3A",
"5.	c #645838",
"6.	c #87784B",
"7.	c #736C5A",
"8.	c #6F6B61",
"9.	c #64625C",
"0.	c #636159",
"a.	c #786E55",
"b.	c #837249",
"c.	c #AB8E45",
"d.	c #A4893F",
"e.	c #857444",
"f.	c #5A5035",
"g.	c #343129",
"h.	c #302C23",
"i.	c #453C25",
"j.	c #382F18",
"k.	c #3B2F0E",
"l.	c #32280D",
"m.	c #0F0F0E",
"n.	c #4E3E11",
"o.	c #6C5425",
"p.	c #3E3B35",
"q.	c #393938",
"r.	c #5E5336",
"s.	c #92845A",
"t.	c #99947E",
"u.	c #706E67",
"v.	c #74726B",
"w.	c #68655F",
"x.	c #7E7053",
"y.	c #A58243",
"z.	c #A9863B",
"A.	c #B99240",
"B.	c #BC953C",
"C.	c #BC973E",
"D.	c #A18037",
"E.	c #554A2C",
"F.	c #2B271F",
"G.	c #25211A",
"H.	c #362E1C",
"I.	c #3C3318",
"J.	c #362A0B",
"K.	c #302812",
"L.	c #141412",
"M.	c #1E1B11",
"N.	c #695415",
"O.	c #4D3E22",
"P.	c #32322F",
"Q.	c #504A3A",
"R.	c #81724B",
"S.	c #827D6E",
"T.	c #787771",
"U.	c #73726B",
"V.	c #67665F",
"W.	c #7D6F53",
"X.	c #9D7D42",
"Y.	c #9C7A37",
"Z.	c #A57F37",
"`.	c #B7913A",
" +	c #B99639",
".+	c #B9953C",
"++	c #5F522D",
"@+	c #2D2A20",
"#+	c #2C291C",
"$+	c #1D1910",
"%+	c #2C2412",
"&+	c #372A0D",
"*+	c #382E0D",
"=+	c #16140E",
"-+	c #493A13",
";+	c #624618",
">+	c #28251D",
",+	c #292926",
"'+	c #5E5238",
")+	c #7A6F55",
"!+	c #7A7669",
"~+	c #77746E",
"{+	c #74726C",
"]+	c #696862",
"^+	c #6A6962",
"/+	c #70695A",
"(+	c #8C7649",
"_+	c #92753C",
":+	c #9A7A3C",
"<+	c #A5833E",
"[+	c #A78A41",
"}+	c #957D38",
"|+	c #49432C",
"1+	c #2E2B1C",
"2+	c #2B2719",
"3+	c #211C11",
"4+	c #17120A",
"5+	c #2C210F",
"6+	c #43340F",
"7+	c #3B3010",
"8+	c #795F15",
"9+	c #483414",
"0+	c #1B1A16",
"a+	c #23231F",
"b+	c #403A2B",
"c+	c #6F5D36",
"d+	c #766C57",
"e+	c #69665E",
"f+	c #696761",
"g+	c #6C6A64",
"h+	c #67665D",
"i+	c #6E6C63",
"j+	c #605F58",
"k+	c #716345",
"l+	c #826B39",
"m+	c #836C3A",
"n+	c #846B38",
"o+	c #92793F",
"p+	c #6A5B32",
"q+	c #353224",
"r+	c #2D2A18",
"s+	c #292516",
"t+	c #211D12",
"u+	c #1E1A0E",
"v+	c #1E180A",
"w+	c #31260F",
"x+	c #42350F",
"y+	c #1A1912",
"z+	c #141413",
"A+	c #111110",
"B+	c #5C4912",
"C+	c #302412",
"D+	c #262622",
"E+	c #4B3F28",
"F+	c #6D6141",
"G+	c #5E5B50",
"H+	c #5E5C52",
"I+	c #5A5851",
"J+	c #605D57",
"K+	c #7A6F51",
"L+	c #B0954B",
"M+	c #88753D",
"N+	c #64593A",
"O+	c #6A5E3B",
"P+	c #766637",
"Q+	c #6F5F34",
"R+	c #635834",
"S+	c #554C2C",
"T+	c #6E5E2B",
"U+	c #7F6824",
"V+	c #373017",
"W+	c #262215",
"X+	c #211E11",
"Y+	c #1A170B",
"Z+	c #2F2814",
"`+	c #483910",
" @	c #312A12",
".@	c #151513",
"+@	c #463913",
"@@	c #694919",
"#@	c #241D13",
"$@	c #141310",
"%@	c #1F1E1A",
"&@	c #4E3F23",
"*@	c #645C3F",
"=@	c #514E42",
"-@	c #545247",
";@	c #535147",
">@	c #545148",
",@	c #78663D",
"'@	c #D5A122",
")@	c #CC9721",
"!@	c #C79C30",
"~@	c #CFA335",
"{@	c #CC9626",
"]@	c #CB9929",
"^@	c #C1992E",
"/@	c #B28D25",
"(@	c #B78A1E",
"_@	c #BA9325",
":@	c #3D3213",
"<@	c #252012",
"[@	c #242011",
"}@	c #221F13",
"|@	c #332D1A",
"1@	c #403514",
"2@	c #403511",
"3@	c #302911",
"4@	c #987919",
"5@	c #5D4015",
"6@	c #1D1913",
"7@	c #151412",
"8@	c #201D17",
"9@	c #51401E",
"0@	c #4D462F",
"a@	c #434032",
"b@	c #474438",
"c@	c #434239",
"d@	c #58574F",
"e@	c #6F6B5F",
"f@	c #B99033",
"g@	c #CB992C",
"h@	c #CA9D32",
"i@	c #C69329",
"j@	c #C38E28",
"k@	c #D2A22A",
"l@	c #D5A629",
"m@	c #CFA52D",
"n@	c #CD9922",
"o@	c #927624",
"p@	c #272113",
"q@	c #261F12",
"r@	c #262111",
"s@	c #1C180D",
"t@	c #222019",
"u@	c #4B442B",
"v@	c #58491A",
"w@	c #242010",
"x@	c #917517",
"y@	c #573C15",
"z@	c #1A1713",
"A@	c #151514",
"B@	c #1F1B14",
"C@	c #443417",
"D@	c #372F1B",
"E@	c #353221",
"F@	c #3C392D",
"G@	c #524F44",
"H@	c #696657",
"I@	c #756E57",
"J@	c #BF9633",
"K@	c #D4A429",
"L@	c #C5942B",
"M@	c #C99529",
"N@	c #CBA02D",
"O@	c #D3A125",
"P@	c #DCA92A",
"Q@	c #D4A62F",
"R@	c #D5A125",
"S@	c #9C7821",
"T@	c #39331F",
"U@	c #2E281A",
"V@	c #2A2516",
"W@	c #231F14",
"X@	c #3B3520",
"Y@	c #7A7049",
"Z@	c #6B5A23",
"`@	c #221F11",
" #	c #987A19",
".#	c #593E18",
"+#	c #1B1814",
"@#	c #1D1A13",
"##	c #443112",
"$#	c #31270F",
"%#	c #262011",
"&#	c #39362B",
"*#	c #5D594D",
"=#	c #746F5B",
"-#	c #AB9042",
";#	c #D9A523",
">#	c #CE9C26",
",#	c #C6962B",
"'#	c #CA931D",
")#	c #CA9D27",
"!#	c #CB9B26",
"~#	c #D5A52C",
"{#	c #D2A32B",
"]#	c #D4A62A",
"^#	c #CC9C22",
"/#	c #785F23",
"(#	c #3A3628",
"_#	c #322D20",
":#	c #211E16",
"<#	c #1F1C14",
"[#	c #4A4532",
"}#	c #67571E",
"|#	c #181714",
"1#	c #131211",
"2#	c #211E10",
"3#	c #9F8119",
"4#	c #543812",
"5#	c #191610",
"6#	c #10100F",
"7#	c #14120E",
"8#	c #372710",
"9#	c #322914",
"0#	c #1C1609",
"a#	c #211C0F",
"b#	c #312D23",
"c#	c #726744",
"d#	c #C8A435",
"e#	c #C39729",
"f#	c #C89829",
"g#	c #C7982B",
"h#	c #D09922",
"i#	c #D79B1A",
"j#	c #D69E23",
"k#	c #D2A52E",
"l#	c #CE9F2E",
"m#	c #D19D22",
"n#	c #CC9E23",
"o#	c #AE8720",
"p#	c #4F4832",
"q#	c #3E3B2E",
"r#	c #27241D",
"s#	c #332F24",
"t#	c #4A432D",
"u#	c #66561F",
"v#	c #151411",
"w#	c #0E0D0C",
"x#	c #2C2713",
"y#	c #AD8D21",
"z#	c #5B3E17",
"A#	c #211B12",
"B#	c #191916",
"C#	c #141311",
"D#	c #372811",
"E#	c #43391C",
"F#	c #1F190D",
"G#	c #1C1709",
"H#	c #1D1809",
"I#	c #6A5928",
"J#	c #C7A232",
"K#	c #C79B27",
"L#	c #D4A224",
"M#	c #C69925",
"N#	c #CA9925",
"O#	c #DAA21E",
"P#	c #D39E20",
"Q#	c #C69523",
"R#	c #CFA12E",
"S#	c #D29E23",
"T#	c #D2A326",
"U#	c #D2A627",
"V#	c #6B5F3B",
"W#	c #4A473D",
"X#	c #3D3B31",
"Y#	c #504936",
"Z#	c #796B3F",
"`#	c #605323",
" $	c #222119",
".$	c #222018",
"+$	c #413818",
"@$	c #C3A127",
"#$	c #2D2112",
"$$	c #28261E",
"%$	c #201F18",
"&$	c #271C0C",
"*$	c #43371A",
"=$	c #262213",
"-$	c #1E190D",
";$	c #1B160A",
">$	c #725D22",
",$	c #CCA837",
"'$	c #BF982C",
")$	c #B7871F",
"!$	c #C49422",
"~$	c #D9A421",
"{$	c #E5B023",
"]$	c #E2AC23",
"^$	c #D4A024",
"/$	c #D3A229",
"($	c #D8A92C",
"_$	c #D9AF2F",
":$	c #D7B030",
"<$	c #766A40",
"[$	c #545248",
"}$	c #3C3B34",
"|$	c #413E31",
"1$	c #867539",
"2$	c #463D1E",
"3$	c #343120",
"4$	c #2B281A",
"5$	c #62531C",
"6$	c #3A2811",
"7$	c #212019",
"8$	c #23211A",
"9$	c #201B12",
"0$	c #4D3E1C",
"a$	c #3B351E",
"b$	c #211D11",
"c$	c #252013",
"d$	c #695825",
"e$	c #BC9A35",
"f$	c #C9A42F",
"g$	c #C19629",
"h$	c #D7A424",
"i$	c #E7B020",
"j$	c #E4AB1F",
"k$	c #DCA11B",
"l$	c #E1A825",
"m$	c #CC9825",
"n$	c #CCA22E",
"o$	c #D1AA34",
"p$	c #D2AD36",
"q$	c #7B6F48",
"r$	c #535149",
"s$	c #525043",
"t$	c #5B5641",
"u$	c #6C5E2C",
"v$	c #2E2C21",
"w$	c #383524",
"x$	c #201F17",
"y$	c #887124",
"z$	c #493213",
"A$	c #221F17",
"B$	c #1C1B16",
"C$	c #291E0E",
"D$	c #41361A",
"E$	c #352F1A",
"F$	c #272317",
"G$	c #624D1A",
"H$	c #A47D26",
"I$	c #CAA32F",
"J$	c #C0972D",
"K$	c #C69926",
"L$	c #D2A025",
"M$	c #CA9926",
"N$	c #CDA02A",
"O$	c #CFA134",
"P$	c #B98B30",
"Q$	c #CBA338",
"R$	c #CFA432",
"S$	c #C4A53D",
"T$	c #786E48",
"U$	c #57554E",
"V$	c #5C5645",
"W$	c #83743E",
"X$	c #64582E",
"Y$	c #3D3B2F",
"Z$	c #433D2A",
"`$	c #3A341F",
" %	c #B0922A",
".%	c #332513",
"+%	c #1B1812",
"@%	c #19140C",
"#%	c #382A11",
"$%	c #2A2313",
"%%	c #201C14",
"&%	c #3C3424",
"*%	c #6A5B33",
"=%	c #887236",
"-%	c #9E8032",
";%	c #B18C2D",
">%	c #BD9529",
",%	c #C79A29",
"'%	c #CBA12F",
")%	c #BF9B3B",
"!%	c #BD973A",
"~%	c #AB903F",
"{%	c #A28B49",
"]%	c #80764D",
"^%	c #676357",
"/%	c #676052",
"(%	c #736748",
"_%	c #695D36",
":%	c #393830",
"<%	c #36352F",
"[%	c #2E2C26",
"}%	c #746327",
"|%	c #443013",
"1%	c #221E16",
"2%	c #201E17",
"3%	c #191712",
"4%	c #2C2213",
"5%	c #453515",
"6%	c #342D16",
"7%	c #332E23",
"8%	c #45402F",
"9%	c #454335",
"0%	c #AF8D2F",
"a%	c #C39A2C",
"b%	c #CD9C24",
"c%	c #D7A726",
"d%	c #C49A2D",
"e%	c #B08F39",
"f%	c #847751",
"g%	c #777564",
"h%	c #65635C",
"i%	c #736D59",
"j%	c #625D4A",
"k%	c #756946",
"l%	c #4F4731",
"m%	c #4B4838",
"n%	c #3F3D32",
"o%	c #4F4A34",
"p%	c #A2872E",
"q%	c #372813",
"r%	c #211E17",
"s%	c #1C1B17",
"t%	c #2E2516",
"u%	c #3F321D",
"v%	c #3D3420",
"w%	c #3B3629",
"x%	c #3D3A31",
"y%	c #474339",
"z%	c #7F6832",
"A%	c #C19228",
"B%	c #D9A11D",
"C%	c #D7A625",
"D%	c #B3912F",
"E%	c #7E6E44",
"F%	c #5F5D56",
"G%	c #66655D",
"H%	c #79735E",
"I%	c #746E54",
"J%	c #6E6241",
"K%	c #5C5034",
"L%	c #45433F",
"M%	c #565342",
"N%	c #363530",
"O%	c #7E6B2F",
"P%	c #523812",
"Q%	c #2E210F",
"R%	c #191813",
"S%	c #201F19",
"T%	c #13120F",
"U%	c #281E10",
"V%	c #362A15",
"W%	c #4B3E25",
"X%	c #473E2A",
"Y%	c #474233",
"Z%	c #433F35",
"`%	c #635636",
" &	c #8E722F",
".&	c #8F773A",
"+&	c #655C43",
"@&	c #5E5A4E",
"#&	c #635C4B",
"$&	c #635D4E",
"%&	c #7A6C47",
"&&	c #5D5135",
"*&	c #504734",
"=&	c #43423E",
"-&	c #423F3A",
";&	c #383836",
">&	c #6F5E2F",
",&	c #4A3315",
"'&	c #332816",
")&	c #1B1A14",
"!&	c #1A1812",
"~&	c #1B1811",
"{&	c #312717",
"]&	c #40331D",
"^&	c #5D5031",
"/&	c #524932",
"(&	c #5F583F",
"_&	c #635C43",
":&	c #635C42",
"<&	c #5C543D",
"[&	c #655A3F",
"}&	c #5B4E32",
"|&	c #5A4D31",
"1&	c #53472E",
"2&	c #3C3A32",
"3&	c #403E34",
"4&	c #47453A",
"5&	c #403F3B",
"6&	c #6D5D36",
"7&	c #9D812F",
"8&	c #4D3817",
"9&	c #312511",
"0&	c #10100D",
"a&	c #28261D",
"b&	c #1D1C19",
"c&	c #2F2719",
"d&	c #332715",
"e&	c #41331C",
"f&	c #3F311C",
"g&	c #4A3B20",
"h&	c #43351E",
"i&	c #41341F",
"j&	c #382F1E",
"k&	c #2A271E",
"l&	c #313029",
"m&	c #464233",
"n&	c #36332B",
"o&	c #3C3B37",
"p&	c #6D5C35",
"q&	c #96772D",
"r&	c #3C2C16",
"s&	c #252117",
"t&	c #23221D",
"u&	c #23211C",
"v&	c #24221B",
"w&	c #201E16",
"x&	c #1A1913",
"y&	c #1D1B15",
"z&	c #1D1B14",
"A&	c #181612",
"B&	c #262218",
"C&	c #312D20",
"D&	c #332E20",
"E&	c #29271F",
"F&	c #2A2923",
"G&	c #413C2D",
"H&	c #6C592E",
"I&	c #4C391B",
"J&	c #3B2F19",
"K&	c #221E15",
"L&	c #181713",
"M&	c #1D1B16",
"N&	c #28241A",
"O&	c #191714",
"P&	c #201D15",
"Q&	c #232019",
"R&	c #22201A",
"S&	c #342F20",
"T&	c #584826",
"U&	c #7D632E",
"V&	c #563F1B",
"W&	c #433218",
"X&	c #382D19",
"Y&	c #2D2619",
"Z&	c #231E15",
"`&	c #1E1A13",
" *	c #211D15",
".*	c #282319",
"+*	c #322A1A",
"@*	c #45361D",
"#*	c #594420",
"$*	c #745824",
"%*	c #62461F",
"&*	c #5C421D",
"**	c #61451E",
"=*	c #6A4E21",
"                          . + @ # # $                           ",
"                    % & * = - ; > , ' ) ! ~                     ",
"                { ] ^ / ( _ = : < [ } | 1 2 3 4                 ",
"            5 6 7 8 9 0 a b c d e f g h i j k c l m             ",
"          n o p q r s t u v w x y z A B C D E F G H I           ",
"        J K L M N O P Q R S T U V W X Y Z ` b  .F ..+.@.        ",
"      #.$.%.&.*.=.-.;.>.,.'.).!.~.{.].^./.(._.:.<.[...}.|.      ",
"      1.2.3.4.5.6.7.8.9.0.a.b.c.d.e.f.g.h.i.j.k.l.m.E E n.      ",
"    o.p.q.%.r.s.t.u.v.w.x.y.z.A.B.C.D.E.F.G.H.I.J.K.G L.M.N.    ",
"    O.P.M Q.R.S.T.U.U.V.W.X.Y.Z.`. +.+++@+#+$+%+&+*+=+..[.-+    ",
"  ;+>+,+N '+)+!+~+{+]+^+/+(+_+:+<+[+}+|+1+2+3+4+5+6+7+E k - 8+  ",
"  9+0+a+b+c+d+e+f+g+h+i+j+k+l+m+n+o+p+q+r+s+t+u+v+w+x+y+z+A+B+  ",
"  C+0+D+E+F+G+H+I+J+K+L+M+N+O+P+Q+R+S+T+U+V+W+X+Y+Z+`+ @.@L.+@  ",
"@@#@$@%@&@*@=@-@;@>@,@'@)@!@~@{@]@^@/@(@_@:@<@[@}@|@1@2@..E 3@4@",
"5@6@7@8@9@0@a@b@c@d@e@f@g@h@i@j@k@l@m@n@o@p@q@r@s@t@u@v@..m.w@x@",
"y@z@A@B@C@D@E@F@G@H@I@J@K@L@M@N@O@P@Q@R@S@T@U@V@W@X@Y@Z@7@L.`@ #",
".#+#L.@###$#%#&#*#=#-#;#>#,#'#)#!#~#{#]#^#/#(#_#:#<#[#}#|#1#2#3#",
"4#5#6#7#8#9#0#a#b#c#d#e#f#g#h#i#j#k#l#m#n#o#p#q#r#s#t#u#v#w#x#y#",
"z#A#B#C#D#E#F#G#H#I#J#K#L#M#N#O#P#Q#R#S#T#U#V#W#X#Y#Z#`# $.$+$@$",
"  #$$$%$&$*$=$-$;$>$,$'$)$!$~${$]$^$/$($_$:$<$[$}$|$1$2$3$4$5$  ",
"  6$7$8$9$0$a$b$c$d$e$f$g$h$i$j$k$l$m$n$o$p$q$r$s$t$u$v$w$x$y$  ",
"  z$A$/ B$C$D$E$F$G$H$I$J$K$L$M$N$O$P$Q$R$S$T$U$V$W$X$Y$Z$`$ %  ",
"    .%B$+%@%#%$%%%&%*%=%-%;%>%,%'%)%!%~%{%]%^%/%(%_%:%<%[%}%    ",
"    |%1%2%3%4%5%6%7%8%9%Q+0%a%b%c%d%e%f%g%h%i%j%k%l%m%n%o%p%    ",
"      q%|#r%s%t%u%v%w%x%y%z%A%B%C%D%E%F%G%H%I%J%K%L%M%N%O%      ",
"      P%Q%R%S%T%U%V%W%X%Y%Z%`% &.&+&@&#&$&%&&&*&=&-&;&>&        ",
"        ,&'&)&!&!&~&{&]&^&/&(&_&:&<&[&}&|&1&2&3&4&5&6&7&        ",
"          8&9&0&<#a&b&A$c&d&e&f&g&h&i&j&k&l&m&n&o&p&q&          ",
"              r&s&t&u&k&v&w&x&y&z&A&B&C&D&E&F&G&H&              ",
"                I&J&K&L&M&N&A$r%A$O&P&Q&R&S&T&U&                ",
"                    V&W&X&Y&Z&`& *.*+*@*#*$*                    ",
"                            %*&***=*                            "};
