/* XPM */
static char * bitcoin16_xpm[] = {
"16 16 192 2",
"  	c None",
". 	c #60521B",
"+ 	c #504315",
"@ 	c #423711",
"# 	c #4B3D14",
"$ 	c #534925",
"% 	c #35301D",
"& 	c #2F2B1B",
"* 	c #302A19",
"= 	c #232014",
"- 	c #252215",
"; 	c #2A2515",
"> 	c #342B0F",
", 	c #675836",
"' 	c #49422F",
") 	c #3B382D",
"! 	c #544C2C",
"~ 	c #584F2E",
"{ 	c #524927",
"] 	c #483E20",
"^ 	c #3E351B",
"/ 	c #342C15",
"( 	c #15140F",
"_ 	c #241E0E",
": 	c #443A18",
"< 	c #4D4637",
"[ 	c #5A5442",
"} 	c #6B6249",
"| 	c #777059",
"1 	c #6C6553",
"2 	c #857345",
"3 	c #7D6B3C",
"4 	c #504732",
"5 	c #41371E",
"6 	c #302810",
"7 	c #1F1B0D",
"8 	c #26210F",
"9 	c #4A402B",
"0 	c #413E36",
"a 	c #6F674F",
"b 	c #5D5C55",
"c 	c #6D6B63",
"d 	c #76633E",
"e 	c #A17E37",
"f 	c #AF8835",
"g 	c #76612F",
"h 	c #2F2B20",
"i 	c #17140B",
"j 	c #2B220C",
"k 	c #382F13",
"l 	c #29261E",
"m 	c #4B4330",
"n 	c #7A725E",
"o 	c #676660",
"p 	c #87847B",
"q 	c #786B50",
"r 	c #89723F",
"s 	c #937A3E",
"t 	c #61532D",
"u 	c #36301F",
"v 	c #1E1A0F",
"w 	c #2F2409",
"x 	c #2A230E",
"y 	c #1D1A10",
"z 	c #3A2B15",
"A 	c #1F1D17",
"B 	c #524930",
"C 	c #5B574A",
"D 	c #565347",
"E 	c #95804A",
"F 	c #9F8333",
"G 	c #9B7A2F",
"H 	c #937228",
"I 	c #8D7225",
"J 	c #5E4D1C",
"K 	c #201C0F",
"L 	c #25200F",
"M 	c #393015",
"N 	c #151512",
"O 	c #504114",
"P 	c #2F2311",
"Q 	c #1B1812",
"R 	c #463C23",
"S 	c #403C2E",
"T 	c #514F44",
"U 	c #9A813B",
"V 	c #C89A29",
"W 	c #CB9829",
"X 	c #D39F26",
"Y 	c #CC9F26",
"Z 	c #785F1B",
"` 	c #272113",
" .	c #2E2A18",
"..	c #574D29",
"+.	c #17150E",
"@.	c #46390F",
"#.	c #302513",
"$.	c #191611",
"%.	c #352A13",
"&.	c #2D271A",
"*.	c #60593E",
"=.	c #B79537",
"-.	c #CF9D26",
";.	c #CC961C",
">.	c #CF9A1F",
",.	c #CE9F28",
"'.	c #A68629",
").	c #463F2A",
"!.	c #29261B",
"~.	c #5C512C",
"{.	c #1C1A11",
"].	c #4F4213",
"^.	c #352714",
"/.	c #201E18",
"(.	c #302714",
"_.	c #211C0E",
":.	c #51421B",
"<.	c #BF9A2F",
"[.	c #CA9B28",
"}.	c #DCA521",
"|.	c #D7A324",
"1.	c #D3A127",
"2.	c #C99F2A",
"3.	c #675C3D",
"4.	c #464133",
"5.	c #564B26",
"6.	c #232017",
"7.	c #6A581D",
"8.	c #27231A",
"9.	c #2A2212",
"0.	c #352D15",
"a.	c #453715",
"b.	c #B08D30",
"c.	c #C69A28",
"d.	c #DBA824",
"e.	c #D2A02E",
"f.	c #CD9E2E",
"g.	c #CAA73A",
"h.	c #726A49",
"i.	c #675E41",
"j.	c #534A2B",
"k.	c #423C24",
"l.	c #2B2315",
"m.	c #211E15",
"n.	c #302712",
"o.	c #2D2918",
"p.	c #60542E",
"q.	c #977F36",
"r.	c #C99E2B",
"s.	c #C69C32",
"t.	c #A48944",
"u.	c #7E7249",
"v.	c #605D50",
"w.	c #5C543C",
"x.	c #3A382E",
"y.	c #5C5129",
"z.	c #30291B",
"A.	c #221D12",
"B.	c #2B2413",
"C.	c #453E2A",
"D.	c #5D5031",
"E.	c #9D7D2D",
"F.	c #A28537",
"G.	c #736A51",
"H.	c #6D664F",
"I.	c #6E654C",
"J.	c #504A3A",
"K.	c #5D5435",
"L.	c #302616",
"M.	c #292216",
"N.	c #201D15",
"O.	c #332B1C",
"P.	c #382F1D",
"Q.	c #443B24",
"R.	c #4C4229",
"S.	c #504731",
"T.	c #4C4532",
"U.	c #423F35",
"V.	c #5B533D",
"W.	c #746842",
"X.	c #2E2618",
"Y.	c #262218",
"Z.	c #1E1C15",
"`.	c #1F1C13",
" +	c #201C14",
".+	c #242118",
"++	c #302C1E",
"@+	c #4E442C",
"#+	c #3A2E18",
"$+	c #372B16",
"%+	c #3A2C19",
"&+	c #46381F",
"            . + @ #             ",
"        $ % & * = - ; >         ",
"    , ' ) ! ~ { ] ^ / ( _ :     ",
"    < [ } | 1 2 3 4 5 6 7 8     ",
"  9 0 a b c d e f g h i j ( k   ",
"  l m n o p q r s t u v w x y   ",
"z A B C D E F G H I J K L M N O ",
"P Q R S T U V W X Y Z `  ...+.@.",
"#.$.%.&.*.=.-.;.>.,.'.).!.~.{.].",
"^./.(._.:.<.[.}.|.1.2.3.4.5.6.7.",
"  8.9.0.a.b.c.d.e.f.g.h.i.j.k.  ",
"  l.m.n.o.p.q.r.s.t.u.v.w.x.y.  ",
"    z.A.B.C.D.E.F.G.H.I.J.K.    ",
"    L.M.N.O.P.Q.R.S.T.U.V.W.    ",
"        X.Y.Z.`. +.+++@+        ",
"            #+$+%+&+            "};
